<svg id="Layer_1_copy" height="512" viewBox="0 0 64 64" width="512" xmlns="http://www.w3.org/2000/svg" data-name="Layer 1 copy"><path d="m30 19h5v6h-5z" fill="#d6a15b"/><path d="m32 23h1v-2h-1z" fill="#d6a15b"/><path d="m29 9h-4v4a5.49 5.49 0 0 0 .22 1.58 6 6 0 0 0 5.78 4.42h4v-4a6 6 0 0 0 -6-6z" fill="#edba70"/><path d="m35 9h-3l3 4v12h6v-10a6 6 0 0 0 -6-6z" fill="#5e3011"/><path d="m17 61h-13l-2-9h17z" fill="#844215"/><path d="m5.6 59h9.8l1.11-5h-12z" fill="#844215"/><path d="m60 61h-13l-2-9h17z" fill="#844215"/><path d="m40 25v39h-18v-3l2-7 .3-3.87.7-9.13z" fill="#aa1329"/><path d="m40 25v8.36c-.55 1.12-1.22 2.37-2 3.68-2.6 4.36-6.47 9.37-11.63 12.13a19.43 19.43 0 0 1 -2.07 1l.7-9.17z" fill="#930a25"/><path d="m30 25-5 9-5-9h-6l8 16h6l12-16z" fill="#f2334f"/><path d="m37.47 4.73-7.47-3.73-13.55 7.74-.45.26h30z" fill="#e72b3f"/><path d="m37.47 4.73c-6.83 2.53-15.87 3.59-21 4l13.53-7.73z" fill="#f7415b"/><path d="m35 13h-10a8.92 8.92 0 0 1 0-2v-2h7z" fill="#d6a15b"/><path d="m2 52a8.26 8.26 0 0 1 8.5-8 8.26 8.26 0 0 1 8.5 8" fill="#c86a25"/><path d="m45 52a8.52 8.52 0 0 1 17 0" fill="#c86a25"/><g fill="#032030"><path d="m35 56h-3a1 1 0 0 1 0-2h3a1 1 0 0 1 0 2z"/><path d="m35 62h-3a1 1 0 0 1 0-2h3a1 1 0 0 1 0 2z"/><path d="m17 62h-13a1 1 0 0 1 -1-.78l-2-9a1 1 0 0 1 1-1.22h8a1 1 0 0 1 0 2h-6.75l1.55 7h11.4l1.56-7h-3.76a1 1 0 0 1 0-2h5a1 1 0 0 1 1 1.22l-2 9a1 1 0 0 1 -1 .78z"/><path d="m20 52h-2a7.27 7.27 0 0 0 -7.5-7 7.27 7.27 0 0 0 -7.5 7h-2a9.27 9.27 0 0 1 9.5-9 9.27 9.27 0 0 1 9.5 9z"/><path d="m60 62h-13a1 1 0 0 1 -1-.78l-2-9a1 1 0 0 1 1-1.22h17a1 1 0 0 1 1 1.22l-2 9a1 1 0 0 1 -1 .78zm-12.2-2h11.4l1.56-7h-14.51z"/><path d="m63 52h-2a7.52 7.52 0 0 0 -15 0h-2a9.51 9.51 0 0 1 19 0z"/><path d="m53 26h-42-.22l-9-2a1 1 0 0 1 .43-2l8.89 2h41.79l8.89-2a1 1 0 0 1 .43 2l-9 2z"/><path d="m10 25h2v19h-2z"/><path d="m52 25h2v19h-2z"/><path d="m28 42h-6a1 1 0 0 1 -.89-.55l-4.5-9a1 1 0 0 1 1.79-.89l4.22 8.44h4.88l10.5-14h-7.41l-4.71 8.49a1 1 0 0 1 -1.75 0l-4.72-8.49h-3.79l1.27 2.55a1 1 0 1 1 -1.79.89l-2-4a1 1 0 0 1 .9-1.44h6a1 1 0 0 1 .87.51l4.13 7.43 4.13-7.43a1 1 0 0 1 .87-.51h10a1 1 0 0 1 .8 1.6l-12 16a1 1 0 0 1 -.8.4z"/><path d="m22 64a1 1 0 0 1 -1-1v-2a1 1 0 0 1 0-.27l2-6.9 1-12.9a1 1 0 0 1 2 .15l-1 13a1 1 0 0 1 0 .2l-2 6.87v1.85a1 1 0 0 1 -1 1z"/><path d="m46 10h-30a1 1 0 0 1 -.5-1.87l14-8a1 1 0 0 1 .94 0l16 8a1 1 0 0 1 -.44 1.87zm-26.23-2h22l-11.77-5.87z"/><path d="m35 20h-4a7 7 0 0 1 -7-7v-4a1 1 0 0 1 1-1h4a7 7 0 0 1 7 7v4a1 1 0 0 1 -1 1zm-9-10v3a5 5 0 0 0 5 5h3v-3a5 5 0 0 0 -5-5z"/><path d="m40 64a1 1 0 0 1 -1-1v-18a1 1 0 0 1 2 0v18a1 1 0 0 1 -1 1z"/><path d="m40 42a1 1 0 0 1 -1-1v-16a1 1 0 0 1 2 0v16a1 1 0 0 1 -1 1z"/><path d="m41 26a1 1 0 0 1 -1-1v-5a1 1 0 0 1 2 0v5a1 1 0 0 1 -1 1z"/><path d="m41 17a1 1 0 0 1 -1-1v-1a5 5 0 0 0 -5-5 1 1 0 0 1 0-2 7 7 0 0 1 7 7v1a1 1 0 0 1 -1 1z"/><path d="m30 26a1 1 0 0 1 -1-1v-6a1 1 0 0 1 2 0v6a1 1 0 0 1 -1 1z"/><path d="m35 26a1 1 0 0 1 -1-1v-6a1 1 0 0 1 2 0v6a1 1 0 0 1 -1 1z"/><path d="m58 57h-2a1 1 0 0 1 0-2h2a1 1 0 0 1 0 2z"/><path d="m52 57h-2a1 1 0 0 1 0-2h2a1 1 0 0 1 0 2z"/></g></svg>